<?xml version="1.0" encoding="utf-8"?>
<!-- Generator: Adobe Illustrator 25.0.0, SVG Export Plug-In . SVG Version: 6.00 Build 0)  -->
<svg version="1.1" id="レイヤー_1" xmlns="http://www.w3.org/2000/svg" xmlns:xlink="http://www.w3.org/1999/xlink" x="0px"
	 y="0px" viewBox="0 0 44.8 16.9" style="enable-background:new 0 0 44.8 16.9;" xml:space="preserve">
<g>
	<path d="M2.1,1.6v5.8h3.1v1.6H2.1v7.9H0V0h5.3v1.6H2.1z"/>
	<path d="M18.1,7.4v9.4h-1.7l-0.2-0.9c-0.4,0.6-1,1-1.7,1c-1.4,0-2.6-0.4-2.6-2.8v-1.7c0-2.4,1.1-2.8,2.6-2.8c0.7,0,1.2,0.2,1.6,0.5
		V7.4c0-0.7-0.2-1.3-1.1-1.3s-1.1,0.6-1.1,1.3v0.8h-2V7.4C12,5,13.1,4.6,15,4.6S18.1,5,18.1,7.4z M16.1,14v-1.7
		c0-0.7-0.2-1.3-1.1-1.3s-1.1,0.6-1.1,1.3V14c0,0.7,0.1,1.3,1.1,1.3S16.1,14.8,16.1,14z"/>
	<path d="M25.3,14v-0.9h2V14c0,0.7,0.1,1.3,1.1,1.3s1.1-0.6,1.1-1.3v-1.6c0-0.7-0.1-1.1-0.9-1.1h-0.7c-1.6,0-2.5-0.7-2.5-2.1V7.4
		c0-2.4,1.1-2.8,3-2.8s3.1,0.4,3.1,2.8v0.8h-2V7.4c0-0.7-0.2-1.3-1.1-1.3s-1.1,0.6-1.1,1.3v1.4c0,0.7,0.1,1.1,0.9,1.1H29
		c1.6,0,2.5,0.8,2.5,2.2v2c0,2.4-1.2,2.8-3.1,2.8C26.5,16.9,25.3,16.4,25.3,14z"/>
	<path d="M44.8,7.4v9.4h-2V7.4c0-0.7-0.1-1.3-1.1-1.3s-1.1,0.6-1.1,1.3v9.4h-2V0h2v5.4c0.4-0.6,0.9-0.9,1.6-0.9
		C43.7,4.6,44.8,5,44.8,7.4z"/>
</g>
</svg>
